:SAMPLES-PER-SECOND 30
:FULLY-SPECIFIED
:DEGREES
129
root  6.33989 39.3321 5.31131 -109.41 -79.1288 108.338
RightUpLeg  -30.8853 10.1977 2.83628
RightLeg  57.9252 -8.67627 -15.0235
RightFoot  28.4524 -2.68132 7.97029
RightToes  -5.28226e-011 1.30204e-014 -6.03759e-014
Spine  13.449 -3.23932 -12.1304
Spine1  -7.20274 -5.25328 7.88231
HEad  -8.29881 15.7562 -7.38384
LeftShoulder1  2.37134 15.2968 32.0395
LeftArm  -72.6377 -54.0971 1.51553
LeftForeArm  28.5677 -25.7405 -4.17552
LeftHand  2.07709 11.3293 49.6289
RightShoulder  1.73027 5.58012 11.9793
RightArm  53.038 -51.1771 19.7177
RightForeArm  54.2941 67.4058 21.2364
RightHand  -0.1677 -5.81268 28.3028
LeftUpLeg  -6.65116 -6.91609 -1.58758
LeftLeg  21.1861 -12.6146 -4.16663
LeftFoot  -5.69911 0.948958 -18.8888
LeftToes  -2.42178e-010 -1.66495e-011 -2.88221e-011
130
root  6.73888 37.8738 5.56963 -126.552 -74.6666 123.068
RightUpLeg  -35.6241 11.135 1.5981
RightLeg  73.0873 -4.16933 -16.0732
RightFoot  25.2241 -2.04303 6.72832
RightToes  -5.28226e-011 1.30204e-014 -6.03759e-014
Spine  16.7994 -1.10132 -13.1439
Spine1  -8.68789 -3.28 5.18144
HEad  -8.52896 16.2688 -6.78815
LeftShoulder1  1.07357 11.2564 24.9996
LeftArm  -61.1201 -46.2111 -14.0749
LeftForeArm  38.4683 -50.9715 -11.5981
LeftHand  1.60831 12.2142 25.1619
RightShoulder  1.94674 5.47321 14.8907
RightArm  37.9242 -51.0275 24.4699
RightForeArm  52.1147 66.3337 20.1256
RightHand  -0.212907 -6.63741 11.3277
LeftUpLeg  -5.98907 -10.6117 -4.55577
LeftLeg  27.1868 -8.73588 -4.58277
LeftFoot  -18.0427 -1.10367 -20.4591
LeftToes  -2.42178e-010 -1.66495e-011 -2.88221e-011
131
root  7.17117 36.3461 5.78333 -133.498 -70.8235 126.361
RightUpLeg  -40.6218 10.3879 0.146264
RightLeg  88.5532 0.365019 -14.5295
RightFoot  22.1955 -1.58036 5.74951
RightToes  -5.28226e-011 1.30204e-014 -6.03759e-014
Spine  19.4954 0.612678 -14.7233
Spine1  -5.71421 -2.28752 3.53299
HEad  -12.4177 17.3985 -8.18207
LeftShoulder1  0.124014 7.30717 13.5321
LeftArm  -49.0398 -36.6491 -23.6011
LeftForeArm  67.9173 -75.4135 -39.0208
LeftHand  1.98524 12.839 30.8486
RightShoulder  2.22424 5.02087 19.7394
RightArm  19.5792 -47.4493 31.2235
RightForeArm  54.2412 69.4855 24.3184
RightHand  0.0499321 -6.50843 -11.4708
LeftUpLeg  -5.9103 -11.1525 -8.09256
LeftLeg  35.6274 -6.98893 -4.95153
LeftFoot  -27.6009 -2.87807 -21.167
LeftToes  -2.42178e-010 -1.66495e-011 -2.88221e-011
132
root  7.48651 34.9673 5.91672 -139.652 -69.0998 128.666
RightUpLeg  -45.283 7.97073 -0.746189
RightLeg  101.665 3.00638 -10.8298
RightFoot  18.6398 -1.00535 4.23789
RightToes  -5.28226e-011 1.30204e-014 -6.03759e-014
Spine  20.8782 1.64444 -15.2388
Spine1  0.967908 -2.00638 2.77307
HEad  -19.2382 18.8793 -11.2022
LeftShoulder1  -0.040298 4.12082 1.69049
LeftArm  -33.9279 -25.9222 -33.3018
LeftForeArm  173.023 -77.8595 -137.93
LeftHand  1.62311 9.87418 39.1934
RightShoulder  2.10737 3.80881 22.5954
RightArm  3.58047 -38.5095 42.2629
RightForeArm  71.8364 76.8228 41.6613
RightHand  -0.266473 -4.22232 -28.8609
LeftUpLeg  -6.17148 -10.5797 -9.80723
LeftLeg  44.7332 -5.3319 -5.18284
LeftFoot  -33.4015 -3.78855 -20.2942
LeftToes  -2.42178e-010 -1.66495e-011 -2.88221e-011
133
root  7.63855 33.9966 5.77697 -147.005 -68.796 132.958
RightUpLeg  -49.3324 4.51889 -2.2383
RightLeg  109.551 3.82884 -8.60043
RightFoot  16.03 -0.674735 3.23964
RightToes  -5.28226e-011 1.30204e-014 -6.03759e-014
Spine  21.8082 2.29154 -14.7227
Spine1  6.90893 -1.70733 2.14497
HEad  -25.0778 19.7148 -12.6511
LeftShoulder1  0.457545 0.578349 -8.07695
LeftArm  -17.8722 -12.8113 -43.7528
LeftForeArm  -156.138 -67.8225 -160.472
LeftHand  1.12006 8.52998 39.0829
RightShoulder  1.67307 2.43309 21.924
RightArm  -1.04793 -25.6803 52.8053
RightForeArm  138.318 81.3336 100.713
RightHand  -1.01566 -2.06634 -35.5504
LeftUpLeg  -5.71319 -9.26317 -8.82801
LeftLeg  51.3581 -4.63316 -5.6996
LeftFoot  -36.5724 -4.13154 -19.2762
LeftToes  -2.42178e-010 -1.66495e-011 -2.88221e-011
